<?xml version="1.0" encoding="UTF-8"?>
<svg xmlns="http://www.w3.org/2000/svg" width="800" height="500" viewBox="0 0 800 500">
  <defs>
    <linearGradient id="termBg" x1="0%" y1="0%" x2="0%" y2="100%">
      <stop offset="0%" style="stop-color:#1a1b26"/>
      <stop offset="100%" style="stop-color:#13141a"/>
    </linearGradient>
  </defs>
  
  <!-- Terminal Window -->
  <rect x="0" y="0" width="800" height="500" rx="12" ry="12" fill="url(#termBg)" stroke="#2d2d3a" stroke-width="1"/>
  
  <!-- Terminal Title Bar -->
  <rect x="0" y="0" width="800" height="36" rx="12" ry="12" fill="#1e1f29"/>
  <rect x="0" y="24" width="800" height="12" fill="#1e1f29"/>
  
  <!-- Window Controls -->
  <circle cx="20" cy="18" r="6" fill="#ff5f56"/>
  <circle cx="40" cy="18" r="6" fill="#ffbd2e"/>
  <circle cx="60" cy="18" r="6" fill="#27ca40"/>
  
  <!-- Terminal Title -->
  <text x="400" y="23" text-anchor="middle" font-family="'SF Mono', 'Consolas', monospace" font-size="12" fill="#6b7280">
    saketh@myhost — zsh
  </text>
  
  <!-- Terminal Content -->
  <g font-family="'SF Mono', 'JetBrains Mono', 'Consolas', monospace" font-size="13">
    <!-- Command -->
    <text x="20" y="65" fill="#27ca40">❯</text>
    <text x="40" y="65" fill="#e5e7eb">cat tech_stack.py</text>
    
    <!-- Python Code Output -->
    <text x="20" y="95" fill="#9ca3af"># Full-Stack AI Engineer Tech Stack</text>
    
    <text x="20" y="120" fill="#fbbf24">tech_stack</text>
    <text x="120" y="120" fill="#9ca3af">=</text>
    <text x="135" y="120" fill="#fbbf24">{</text>
    
    <!-- Languages -->
    <text x="35" y="145" fill="#a78bfa">"languages"</text>
    <text x="140" y="145" fill="#9ca3af">:</text>
    <text x="150" y="145" fill="#9ca3af">[</text>
    <text x="160" y="145" fill="#34d399">"Python"</text>
    <text x="230" y="145" fill="#9ca3af">,</text>
    <text x="240" y="145" fill="#34d399">"Go"</text>
    <text x="275" y="145" fill="#9ca3af">,</text>
    <text x="285" y="145" fill="#34d399">"TypeScript"</text>
    <text x="380" y="145" fill="#9ca3af">,</text>
    <text x="390" y="145" fill="#34d399">"JavaScript"</text>
    <text x="490" y="145" fill="#9ca3af">,</text>
    <text x="500" y="145" fill="#34d399">"C"</text>
    <text x="525" y="145" fill="#9ca3af">,</text>
    <text x="535" y="145" fill="#34d399">"SQL"</text>
    <text x="575" y="145" fill="#9ca3af">]</text>
    <text x="580" y="145" fill="#9ca3af">,</text>
    
    <!-- AI/ML -->
    <text x="35" y="170" fill="#a78bfa">"ai_ml"</text>
    <text x="95" y="170" fill="#9ca3af">:</text>
    <text x="105" y="170" fill="#fbbf24">{</text>
    <text x="50" y="195" fill="#60a5fa">"frameworks"</text>
    <text x="160" y="195" fill="#9ca3af">:</text>
    <text x="170" y="195" fill="#9ca3af">[</text>
    <text x="180" y="195" fill="#34d399">"LangChain"</text>
    <text x="270" y="195" fill="#9ca3af">,</text>
    <text x="280" y="195" fill="#34d399">"OpenAI SDK"</text>
    <text x="380" y="195" fill="#9ca3af">,</text>
    <text x="390" y="195" fill="#34d399">"Qiskit"</text>
    <text x="460" y="195" fill="#9ca3af">]</text>
    <text x="465" y="195" fill="#9ca3af">,</text>
    <text x="50" y="220" fill="#60a5fa">"models"</text>
    <text x="120" y="220" fill="#9ca3af">:</text>
    <text x="130" y="220" fill="#9ca3af">[</text>
    <text x="140" y="220" fill="#34d399">"Azure OpenAI GPT-4o"</text>
    <text x="320" y="220" fill="#9ca3af">,</text>
    <text x="330" y="220" fill="#34d399">"Claude"</text>
    <text x="395" y="220" fill="#9ca3af">]</text>
    <text x="400" y="220" fill="#9ca3af">,</text>
    <text x="50" y="245" fill="#60a5fa">"techniques"</text>
    <text x="155" y="245" fill="#9ca3af">:</text>
    <text x="165" y="245" fill="#9ca3af">[</text>
    <text x="175" y="245" fill="#34d399">"RAG"</text>
    <text x="220" y="245" fill="#9ca3af">,</text>
    <text x="230" y="245" fill="#34d399">"Multi-Agent"</text>
    <text x="340" y="245" fill="#9ca3af">,</text>
    <text x="350" y="245" fill="#34d399">"Tool Calling"</text>
    <text x="460" y="245" fill="#9ca3af">]</text>
    <text x="35" y="270" fill="#fbbf24">}</text>
    <text x="40" y="270" fill="#9ca3af">,</text>
    
    <!-- Backend -->
    <text x="35" y="295" fill="#a78bfa">"backend"</text>
    <text x="110" y="295" fill="#9ca3af">:</text>
    <text x="120" y="295" fill="#fbbf24">{</text>
    <text x="50" y="320" fill="#60a5fa">"frameworks"</text>
    <text x="160" y="320" fill="#9ca3af">:</text>
    <text x="170" y="320" fill="#9ca3af">[</text>
    <text x="180" y="320" fill="#34d399">"Django"</text>
    <text x="245" y="320" fill="#9ca3af">,</text>
    <text x="255" y="320" fill="#34d399">"FastAPI"</text>
    <text x="330" y="320" fill="#9ca3af">,</text>
    <text x="340" y="320" fill="#34d399">"Flask"</text>
    <text x="400" y="320" fill="#9ca3af">,</text>
    <text x="410" y="320" fill="#34d399">"Gin"</text>
    <text x="450" y="320" fill="#9ca3af">]</text>
    <text x="455" y="320" fill="#9ca3af">,</text>
    <text x="50" y="345" fill="#60a5fa">"async"</text>
    <text x="105" y="345" fill="#9ca3af">:</text>
    <text x="115" y="345" fill="#9ca3af">[</text>
    <text x="125" y="345" fill="#34d399">"Celery"</text>
    <text x="190" y="345" fill="#9ca3af">,</text>
    <text x="200" y="345" fill="#34d399">"Redis"</text>
    <text x="255" y="345" fill="#9ca3af">,</text>
    <text x="265" y="345" fill="#34d399">"RabbitMQ"</text>
    <text x="345" y="345" fill="#9ca3af">]</text>
    <text x="35" y="370" fill="#fbbf24">}</text>
    <text x="40" y="370" fill="#9ca3af">,</text>
    
    <!-- Frontend & Cloud -->
    <text x="35" y="395" fill="#a78bfa">"frontend"</text>
    <text x="115" y="395" fill="#9ca3af">:</text>
    <text x="125" y="395" fill="#9ca3af">[</text>
    <text x="135" y="395" fill="#34d399">"React"</text>
    <text x="190" y="395" fill="#9ca3af">,</text>
    <text x="200" y="395" fill="#34d399">"TypeScript"</text>
    <text x="295" y="395" fill="#9ca3af">,</text>
    <text x="305" y="395" fill="#34d399">"Next.js"</text>
    <text x="375" y="395" fill="#9ca3af">]</text>
    <text x="380" y="395" fill="#9ca3af">,</text>
    
    <text x="35" y="420" fill="#a78bfa">"cloud"</text>
    <text x="85" y="420" fill="#9ca3af">:</text>
    <text x="95" y="420" fill="#9ca3af">[</text>
    <text x="105" y="420" fill="#34d399">"Azure"</text>
    <text x="160" y="420" fill="#9ca3af">,</text>
    <text x="170" y="420" fill="#34d399">"AWS"</text>
    <text x="215" y="420" fill="#9ca3af">,</text>
    <text x="225" y="420" fill="#34d399">"Kubernetes"</text>
    <text x="325" y="420" fill="#9ca3af">,</text>
    <text x="335" y="420" fill="#34d399">"Docker"</text>
    <text x="395" y="420" fill="#9ca3af">]</text>
    <text x="400" y="420" fill="#9ca3af">,</text>
    
    <!-- Databases -->
    <text x="35" y="445" fill="#a78bfa">"databases"</text>
    <text x="130" y="445" fill="#9ca3af">:</text>
    <text x="140" y="445" fill="#9ca3af">[</text>
    <text x="150" y="445" fill="#34d399">"PostgreSQL"</text>
    <text x="250" y="445" fill="#9ca3af">,</text>
    <text x="260" y="445" fill="#34d399">"MongoDB"</text>
    <text x="340" y="445" fill="#9ca3af">,</text>
    <text x="350" y="445" fill="#34d399">"Redis"</text>
    <text x="405" y="445" fill="#9ca3af">]</text>
    
    <text x="20" y="470" fill="#fbbf24">}</text>
    
    <!-- Blinking Cursor -->
    <rect x="40" y="458" width="10" height="16" fill="#667eea">
      <animate attributeName="opacity" values="1;0;1" dur="1s" repeatCount="indefinite"/>
    </rect>
  </g>
</svg>
